<?xml version="1.0" standalone="no"?>
<!DOCTYPE svg PUBLIC "-//W3C//DTD SVG 20010904//EN"
 "http://www.w3.org/TR/2001/REC-SVG-20010904/DTD/svg10.dtd">
<svg version="1.0" xmlns="http://www.w3.org/2000/svg"
 width="900.000000pt" height="499.000000pt" viewBox="0 0 900.000000 499.000000"
 preserveAspectRatio="xMidYMid meet">

<g transform="translate(0.000000,499.000000) scale(0.100000,-0.100000)"
fill="#000000" stroke="none">
<path d="M1746 1565 c-58 -21 -88 -46 -116 -101 -23 -44 -25 -62 -28 -190 -3
-112 0 -155 13 -201 20 -69 70 -122 132 -141 49 -15 264 -16 315 -2 49 14 93
52 121 104 20 38 22 55 22 216 0 162 -2 178 -22 217 -27 50 -73 87 -128 102
-58 16 -261 13 -309 -4z m285 -144 c23 -19 24 -24 24 -169 0 -196 3 -192 -145
-192 -152 0 -154 2 -158 154 -7 213 1 226 152 226 87 0 108 -3 127 -19z"/>
<path d="M2360 1250 l0 -330 75 0 74 0 3 128 3 127 153 3 152 3 0 69 0 70
-155 0 -155 0 0 60 0 60 180 0 180 0 0 70 0 70 -255 0 -255 0 0 -330z"/>
<path d="M3050 1250 l0 -330 75 0 75 0 0 130 0 130 155 0 155 0 0 70 0 70
-155 0 -155 0 0 60 0 60 180 0 180 0 0 70 0 70 -255 0 -255 0 0 -330z"/>
<path d="M3875 1571 c-50 -13 -92 -39 -117 -73 -18 -26 -24 -48 -26 -108 -3
-93 20 -142 88 -180 40 -22 60 -25 186 -30 98 -3 146 -9 158 -19 23 -19 21
-78 -3 -91 -12 -6 -100 -10 -215 -10 l-196 0 0 -70 0 -70 208 0 c120 0 224 5
247 11 131 37 179 227 81 325 -46 46 -117 64 -251 64 -126 0 -155 11 -155 60
0 54 23 60 227 60 l183 0 0 70 0 70 -192 -1 c-106 -1 -206 -4 -223 -8z"/>
<path d="M4520 1250 l0 -330 75 0 75 0 0 130 0 131 153 -3 152 -3 3 -127 3
-128 74 0 75 0 0 330 0 330 -75 0 -75 0 0 -130 0 -130 -155 0 -155 0 0 130 0
130 -75 0 -75 0 0 -330z"/>
<path d="M5469 1567 c-59 -22 -95 -54 -120 -104 -19 -41 -23 -68 -27 -179 -7
-213 19 -286 117 -336 52 -27 62 -28 190 -28 110 0 144 4 176 19 51 23 101 79
114 128 14 48 14 306 1 354 -16 56 -51 101 -100 129 -41 23 -57 25 -180 28
-94 1 -146 -2 -171 -11z m286 -152 c24 -23 25 -29 25 -163 0 -126 -2 -142 -21
-166 -20 -25 -24 -26 -125 -26 -58 0 -114 5 -124 10 -27 15 -40 71 -40 180 0
106 12 165 38 179 9 6 63 11 120 11 96 0 105 -2 127 -25z"/>
<path d="M6110 1251 l0 -331 80 0 80 0 0 105 0 105 134 0 c168 0 166 2 166
-121 l0 -89 75 0 75 0 0 110 c0 79 -4 119 -15 140 -13 25 -13 32 0 64 9 22 15
68 15 123 0 110 -21 158 -83 194 -41 23 -49 24 -284 27 l-243 3 0 -330z m438
173 c18 -12 22 -25 22 -69 0 -79 -13 -85 -172 -85 l-128 0 0 85 0 85 128 0
c99 0 132 -3 150 -16z"/>
<path d="M6920 1250 l0 -330 255 0 255 0 0 70 0 70 -180 0 -180 0 0 60 0 60
155 0 155 0 0 70 0 70 -155 0 -155 0 0 60 0 60 180 0 180 0 0 70 0 70 -255 0
-255 0 0 -330z"/>
</g>
</svg>
